<svg xmlns="http://www.w3.org/2000/svg" width="96" height="96" fill="none" viewBox="0 0 96 96"
        id="search-wifi">
    <path fill="url(#paint0_linear_535_75084)" fill-rule="evenodd"
            d="M48 22C41.2941 22 34.6535 23.313 28.4571 25.8644C22.2607 28.4159 16.6293 32.1561 11.885 36.8724C10.7099 38.0405 10.7043 39.94 11.8724 41.115C13.0405 42.2901 14.94 42.2957 16.115 41.1276C20.3006 36.9668 25.2705 33.6653 30.7416 31.4125C36.2126 29.1597 42.0771 28 48 28C53.9229 28 59.7873 29.1597 65.2584 31.4125C70.7295 33.6653 75.6994 36.9668 79.885 41.1276C81.06 42.2957 82.9595 42.29 84.1276 41.115C85.2957 39.94 85.2901 38.0405 84.115 36.8724C79.3707 32.1561 73.7393 28.4159 67.5429 25.8644C61.3465 23.313 54.7059 22 48 22ZM48 38C43.6915 38 39.4278 38.8782 35.4531 40.5816C31.4787 42.2849 27.8743 44.7786 24.8429 47.9151C23.6914 49.1065 23.7238 51.0057 24.9151 52.1571C26.1065 53.3086 28.0057 53.2762 29.1571 52.0849C31.6412 49.5147 34.5846 47.4816 37.8166 46.0965C41.0484 44.7114 44.5084 44 48 44C51.4952 44 56.0047 44.9157 59.41 47.044C60.815 47.9221 62.6659 47.495 63.544 46.09C64.4221 44.685 63.995 42.8341 62.59 41.956C57.9953 39.0843 52.3049 38 48 38ZM40.8054 55.5684C43.0767 54.536 45.5224 54 48 54C50.4776 54 52.9233 54.536 55.1946 55.5684C57.4649 56.6003 59.5087 58.1042 61.2174 59.9793C62.3334 61.204 62.2453 63.1014 61.0207 64.2174C59.796 65.3334 57.8986 65.2453 56.7826 64.0207C55.6022 62.7254 54.2162 61.7144 52.7118 61.0306C51.2083 60.3472 49.6081 60 48 60C46.3919 60 44.7917 60.3472 43.2882 61.0306C41.7838 61.7144 40.3978 62.7254 39.2174 64.0207C38.1014 65.2453 36.204 65.3334 34.9793 64.2174C33.7547 63.1014 33.6666 61.204 34.7826 59.9793C36.4913 58.1042 38.5351 56.6003 40.8054 55.5684ZM48 76C50.2091 76 52 74.2091 52 72C52 69.7909 50.2091 68 48 68C45.7909 68 44 69.7909 44 72C44 74.2091 45.7909 76 48 76ZM76.2723 51.6111C73.9951 50.2963 71.0831 51.0766 69.7683 53.3539C68.4535 55.6312 69.2338 58.5431 71.5111 59.8579C73.7883 61.1727 76.7003 60.3925 78.0151 58.1152C79.3299 55.8379 78.5496 52.9259 76.2723 51.6111ZM65.4382 50.8539C68.1337 46.1851 74.1036 44.5855 78.7723 47.281C83.4411 49.9765 85.0407 55.9464 82.3452 60.6152C80.0819 64.5354 75.5098 66.2918 71.338 65.1584L65.165 75.8504C64.4746 77.0461 62.9457 77.4558 61.7499 76.7654C60.5542 76.0751 60.1445 74.5461 60.8349 73.3504L67.0078 62.6585C63.9399 59.6124 63.1747 54.7744 65.4382 50.8539Z"
            clip-rule="evenodd" />
    <defs>
        <linearGradient id="paint0_linear_535_75084" x1="48" x2="48" y1="22" y2="77.101"
                gradientUnits="userSpaceOnUse">
            <stop stop-color="#7F52FF" />
            <stop offset="1" stop-color="#eb29a0" />
        </linearGradient>
    </defs>
</svg>
