<svg width="96" height="96" fill="none" viewBox="0 0 96 96" id="search-wifi"
    xmlns="http://www.w3.org/2000/svg">
    <path fill-rule="evenodd"
        d="M 47.999 12.258 C 39.523 12.258 31.13 13.917 23.297 17.143 C 15.466 20.368 8.347 25.097 2.351 31.056 C 0.865 32.534 0.858 34.933 2.336 36.42 C 3.812 37.905 6.211 37.913 7.697 36.436 C 12.988 31.177 19.27 27.003 26.185 24.157 C 33.102 21.308 40.513 19.841 47.999 19.841 C 55.486 19.841 62.898 21.308 69.814 24.157 C 76.73 27.003 83.011 31.177 88.303 36.436 C 89.788 37.913 92.188 37.904 93.664 36.42 C 95.141 34.933 95.134 32.534 93.648 31.056 C 87.652 25.097 80.534 20.368 72.701 17.143 C 64.869 13.917 56.476 12.258 47.999 12.258 Z M 47.999 32.482 C 42.554 32.482 37.164 33.592 32.14 35.745 C 27.116 37.898 22.56 41.05 18.73 45.015 C 17.274 46.521 17.315 48.921 18.821 50.377 C 20.327 51.832 22.726 51.791 24.183 50.286 C 27.322 47.037 31.042 44.466 35.127 42.716 C 39.212 40.966 43.586 40.066 47.999 40.066 C 52.418 40.066 58.117 41.223 62.421 43.914 C 64.198 45.024 66.537 44.485 67.646 42.708 C 68.756 40.932 68.217 38.592 66.441 37.483 C 60.633 33.853 53.44 32.482 47.999 32.482 Z M 38.906 54.688 C 41.777 53.383 44.867 52.705 47.999 52.705 C 51.132 52.705 54.221 53.383 57.093 54.688 C 59.962 55.993 62.547 57.894 64.706 60.264 C 66.117 61.811 66.005 64.211 64.457 65.621 C 62.908 67.032 60.511 66.92 59.1 65.371 C 57.609 63.734 55.856 62.456 53.955 61.593 C 52.054 60.728 50.032 60.29 47.999 60.29 C 45.967 60.29 43.946 60.728 42.043 61.593 C 40.142 62.456 38.39 63.734 36.9 65.371 C 35.489 66.92 33.09 67.032 31.542 65.621 C 29.994 64.211 29.883 61.811 31.294 60.264 C 33.452 57.894 36.035 55.993 38.906 54.688 Z M 47.999 80.512 C 50.793 80.512 53.055 78.25 53.055 75.458 C 53.055 72.667 50.793 70.403 47.999 70.403 C 45.206 70.403 42.943 72.667 42.943 75.458 C 42.943 78.25 45.206 80.512 47.999 80.512 Z M 83.734 49.687 C 80.855 48.024 77.176 49.012 75.516 51.889 C 73.852 54.768 74.838 58.448 77.719 60.111 C 80.598 61.773 84.277 60.785 85.937 57.906 C 87.601 55.03 86.614 51.348 83.734 49.687 Z M 70.041 48.73 C 73.448 42.828 80.995 40.806 86.896 44.214 C 92.796 47.619 94.818 55.167 91.412 61.067 C 88.551 66.022 82.772 68.242 77.499 66.81 L 69.696 80.324 C 68.823 81.836 66.891 82.354 65.379 81.482 C 63.868 80.61 63.349 78.677 64.223 77.166 L 72.027 63.65 C 68.148 59.8 67.181 53.685 70.041 48.73 Z"
        clip-rule="evenodd" fill="url(#ktor)" />
    <defs>
        <linearGradient id="ktor" x1="48" x2="48" y1="22" y2="77.101"
            gradientUnits="userSpaceOnUse"
            gradientTransform="matrix(1.26399, 0, 0, 1.26399, -12.671974, -15.547482)">
            <stop stop-color="#7F52FF" />
            <stop offset="1" stop-color="#eb29a0" />
        </linearGradient>
    </defs>
</svg>