<svg width="96" height="96" fill="none" viewBox="0 0 96 96" id="search-wifi"
    xmlns="http://www.w3.org/2000/svg">
    <path fill-rule="evenodd"
        d="M 48 27.816 C 40.919 27.816 33.907 29.202 27.364 31.897 C 20.821 34.591 14.874 38.541 9.865 43.52 C 8.624 44.754 8.618 46.759 9.852 48.001 C 11.085 49.242 13.09 49.248 14.331 48.014 C 18.751 43.621 23.999 40.134 29.776 37.756 C 35.554 35.376 41.746 34.151 48 34.151 C 54.254 34.151 60.446 35.376 66.224 37.756 C 72.001 40.134 77.249 43.621 81.669 48.014 C 82.91 49.248 84.915 49.241 86.148 48.001 C 87.382 46.759 87.376 44.754 86.134 43.52 C 81.126 38.541 75.179 34.591 68.636 31.897 C 62.093 29.202 55.081 27.816 48 27.816 Z M 48 44.711 C 43.451 44.711 38.948 45.638 34.751 47.437 C 30.554 49.236 26.748 51.869 23.548 55.181 C 22.331 56.44 22.366 58.444 23.624 59.661 C 24.882 60.876 26.887 60.842 28.103 59.584 C 30.726 56.87 33.834 54.723 37.246 53.261 C 40.659 51.799 44.313 51.047 48 51.047 C 51.691 51.047 56.452 52.013 60.048 54.261 C 61.532 55.189 63.486 54.738 64.413 53.254 C 65.34 51.77 64.89 49.816 63.406 48.889 C 58.554 45.856 52.545 44.711 48 44.711 Z M 40.403 63.262 C 42.802 62.172 45.383 61.606 48 61.606 C 50.617 61.606 53.198 62.172 55.597 63.262 C 57.993 64.352 60.153 65.94 61.956 67.92 C 63.135 69.213 63.042 71.217 61.749 72.395 C 60.455 73.574 58.452 73.481 57.273 72.187 C 56.027 70.819 54.564 69.752 52.975 69.03 C 51.387 68.308 49.698 67.942 48 67.942 C 46.302 67.942 44.613 68.308 43.024 69.03 C 41.436 69.752 39.972 70.819 38.727 72.187 C 37.548 73.481 35.545 73.574 34.251 72.395 C 32.958 71.217 32.865 69.213 34.044 67.92 C 35.847 65.94 38.005 64.352 40.403 63.262 Z M 48 84.836 C 50.334 84.836 52.223 82.945 52.223 80.613 C 52.223 78.281 50.334 76.39 48 76.39 C 45.666 76.39 43.776 78.281 43.776 80.613 C 43.776 82.945 45.666 84.836 48 84.836 Z M 77.853 59.084 C 75.448 57.695 72.374 58.52 70.987 60.924 C 69.597 63.329 70.421 66.403 72.827 67.792 C 75.232 69.181 78.306 68.356 79.693 65.951 C 81.083 63.547 80.259 60.471 77.853 59.084 Z M 66.414 58.284 C 69.26 53.354 75.564 51.665 80.494 54.512 C 85.423 57.357 87.112 63.662 84.266 68.591 C 81.877 72.731 77.049 74.585 72.644 73.389 L 66.125 84.679 C 65.396 85.942 63.782 86.374 62.519 85.646 C 61.256 84.917 60.823 83.302 61.553 82.04 L 68.072 70.749 C 64.832 67.533 64.024 62.424 66.414 58.284 Z"
        clip-rule="evenodd" fill="url(#ktor)" style="" />
    <defs>
        <linearGradient id="ktor" x1="48" x2="48" y1="22" y2="77.101"
            gradientUnits="userSpaceOnUse"
            gradientTransform="matrix(1.055939, 0, 0, 1.055939, -2.685256, 4.586731)">
            <stop stop-color="#7F52FF" />
            <stop offset="1" stop-color="#eb29a0" />
        </linearGradient>
    </defs>
    <path
        d="M 16.444 21.719 Q 17.056 21.719 17.473 21.557 Q 17.889 21.396 18.102 21.056 Q 18.314 20.716 18.314 20.206 Q 18.314 19.747 18.093 19.432 Q 17.872 19.118 17.456 18.905 Q 17.039 18.693 16.478 18.506 Q 15.917 18.319 15.237 18.132 Q 14.574 17.928 13.945 17.647 Q 13.316 17.367 12.806 16.933 Q 12.296 16.5 11.999 15.854 Q 11.701 15.208 11.701 14.273 Q 11.701 13.134 12.254 12.343 Q 12.806 11.553 13.733 11.136 Q 14.659 10.72 15.747 10.72 Q 16.682 10.72 17.396 10.966 Q 18.11 11.213 18.646 11.808 Q 19.181 12.403 19.538 13.44 L 18.654 13.338 L 18.994 10.89 L 20.269 10.89 L 20.269 14.086 L 18.773 14.086 Q 18.569 13.457 18.178 13.015 Q 17.787 12.573 17.269 12.343 Q 16.75 12.114 16.121 12.114 Q 15.577 12.114 15.195 12.275 Q 14.812 12.437 14.617 12.743 Q 14.421 13.049 14.421 13.474 Q 14.421 13.899 14.651 14.188 Q 14.88 14.477 15.271 14.664 Q 15.662 14.851 16.198 15.004 Q 16.733 15.157 17.328 15.31 Q 18.076 15.514 18.748 15.786 Q 19.419 16.058 19.955 16.491 Q 20.49 16.925 20.796 17.562 Q 21.102 18.2 21.102 19.135 Q 21.102 20.342 20.567 21.243 Q 20.031 22.144 19.054 22.637 Q 18.076 23.13 16.699 23.13 Q 15.713 23.13 14.821 22.824 Q 13.928 22.518 13.223 21.821 Q 12.517 21.124 12.109 19.917 L 13.061 20.087 L 12.738 22.96 L 11.378 22.96 L 11.378 19.169 L 12.976 19.169 Q 13.282 19.968 13.809 20.537 Q 14.336 21.107 15.025 21.413 Q 15.713 21.719 16.444 21.719 Z M 24.476 17.741 L 29.168 17.741 L 29.168 19.05 L 24.442 19.05 Z M 26.431 11.91 L 26.975 12.743 L 24.136 21.498 Q 24.136 21.583 24.298 21.659 Q 24.459 21.736 24.697 21.77 Q 24.935 21.804 25.19 21.804 L 25.411 21.804 L 25.411 22.96 L 21.807 22.96 L 21.807 21.804 L 21.892 21.804 Q 22.266 21.804 22.47 21.659 Q 22.674 21.515 22.81 21.073 L 26.159 10.89 L 29.389 10.89 L 32.84 21.328 Q 32.925 21.617 33.155 21.71 Q 33.384 21.804 33.724 21.804 L 33.792 21.804 L 33.792 22.96 L 28.216 22.96 L 28.216 21.804 L 28.488 21.804 Q 28.743 21.804 28.99 21.787 Q 29.236 21.77 29.398 21.727 Q 29.559 21.685 29.559 21.634 Z M 34.681 22.96 L 34.681 21.804 L 34.868 21.804 Q 35.163 21.804 35.387 21.753 Q 35.612 21.702 35.741 21.566 Q 35.871 21.43 35.871 21.192 L 35.871 12.658 Q 35.871 12.403 35.741 12.275 Q 35.612 12.148 35.387 12.097 Q 35.163 12.046 34.868 12.046 L 34.681 12.046 L 34.681 10.89 L 40.342 10.89 L 42.739 19.815 L 42.11 18.795 L 44.473 10.89 L 50.049 10.89 L 50.049 12.046 L 49.879 12.046 Q 49.435 12.046 49.147 12.165 Q 48.859 12.284 48.859 12.658 L 48.859 21.192 Q 48.859 21.566 49.147 21.685 Q 49.435 21.804 49.879 21.804 L 50.049 21.804 L 50.049 22.96 L 44.439 22.96 L 44.439 21.804 L 44.592 21.804 Q 44.835 21.804 45.06 21.787 Q 45.284 21.77 45.431 21.727 Q 45.578 21.685 45.578 21.634 L 45.578 11.264 L 45.799 11.298 L 42.297 22.994 L 40.58 22.994 L 37.078 11.281 L 37.333 11.281 L 37.333 21.638 Q 37.333 21.688 37.486 21.729 Q 37.639 21.77 37.886 21.787 Q 38.132 21.804 38.353 21.804 L 38.455 21.804 L 38.455 22.96 Z M 55.852 21.634 L 55.852 12.233 L 56.889 12.233 Q 57.569 12.233 58.045 12.488 Q 58.521 12.743 58.768 13.253 Q 59.014 13.763 59.014 14.553 Q 59.014 15.344 58.759 15.888 Q 58.504 16.432 58.02 16.712 Q 57.535 16.993 56.821 16.993 L 55.342 16.993 L 55.342 18.336 L 57.501 18.336 Q 58.982 18.336 60.052 17.86 Q 61.122 17.384 61.7 16.525 Q 62.278 15.667 62.278 14.511 Q 62.278 12.794 61.046 11.842 Q 59.813 10.89 57.586 10.89 L 51.381 10.89 L 51.381 12.046 L 51.568 12.046 Q 52.012 12.046 52.3 12.165 Q 52.588 12.284 52.588 12.658 L 52.588 21.192 Q 52.588 21.566 52.3 21.685 Q 52.012 21.804 51.568 21.804 L 51.381 21.804 L 51.381 22.96 L 57.212 22.96 L 57.212 21.804 L 56.787 21.804 Q 56.629 21.804 56.465 21.795 Q 56.302 21.787 56.162 21.761 Q 56.022 21.736 55.937 21.71 Q 55.852 21.685 55.852 21.634 Z M 69.031 10.89 L 63.234 10.89 L 63.234 12.046 L 63.421 12.046 Q 63.857 12.046 64.141 12.165 Q 64.424 12.284 64.424 12.658 L 64.424 21.192 Q 64.424 21.566 64.141 21.685 Q 63.857 21.804 63.421 21.804 L 63.234 21.804 L 63.234 22.96 L 73.026 22.96 L 73.026 18.897 L 71.496 18.897 L 71.343 20.886 Q 71.327 21.192 71.114 21.345 Q 70.901 21.498 70.475 21.557 Q 70.049 21.617 69.371 21.617 L 67.722 21.617 L 67.722 12.658 Q 67.722 12.284 68.023 12.165 Q 68.323 12.046 68.793 12.046 L 69.031 12.046 Z M 84.158 19.084 L 84.158 22.96 L 74.332 22.96 L 74.332 21.804 L 74.519 21.804 Q 74.956 21.804 75.239 21.685 Q 75.522 21.566 75.522 21.192 L 75.522 12.658 Q 75.522 12.284 75.239 12.165 Q 74.956 12.046 74.519 12.046 L 74.332 12.046 L 74.332 10.89 L 83.682 10.89 L 83.682 14.341 L 82.22 14.341 L 82.101 12.964 Q 82.084 12.658 81.88 12.496 Q 81.676 12.335 81.293 12.284 Q 80.911 12.233 80.367 12.233 L 78.803 12.233 L 78.803 21.617 L 80.537 21.617 Q 81.047 21.617 81.41 21.591 Q 81.773 21.566 82.005 21.481 Q 82.237 21.396 82.356 21.251 Q 82.476 21.107 82.492 20.886 L 82.679 19.084 Z M 78.327 16.204 Q 78.973 16.16 79.614 16.134 Q 80.254 16.109 80.895 16.071 Q 81.536 16.032 82.169 16.007 L 82.169 17.571 Q 81.534 17.53 80.891 17.5 Q 80.248 17.469 79.61 17.431 Q 78.972 17.392 78.327 17.367 Z"
        style="fill: rgb(0, 0, 0); text-transform: capitalize; text-wrap-mode: nowrap; opacity: 0.9;" />
</svg>